<svg width="57" height="80" viewBox="0 0 57 80" fill="none" xmlns="http://www.w3.org/2000/svg">
<circle cx="28" cy="11" r="7.75" stroke="#808080" stroke-width="2.5"/>
<path d="M24.1765 23.25H31.8235C38.4103 23.25 43.75 28.5897 43.75 35.1765C43.75 36.0455 43.0455 36.75 42.1765 36.75H13.8235C12.9545 36.75 12.25 36.0455 12.25 35.1765C12.25 28.5897 17.5897 23.25 24.1765 23.25Z" stroke="#808080" stroke-width="2.5"/>
<path d="M15.5898 57.2188H14.0859V64.2891H11.5859V57.6094H10.1406V73.6836H11.5859V65.5977H14.0859V74.582H15.5898V57.2188ZM1.64453 70.0898H2.71875C4.63281 70.0898 6.625 69.9629 9.04688 69.5234L8.85156 68.1562C6.74219 68.5859 4.88672 68.7129 3.16797 68.7227V59.3477H1.64453V70.0898ZM37.4648 57.2188H35.9219V61.75H32.4258V63.0195H35.9219V67.5703H37.4648V57.2188ZM23.1484 66.1836L23.9492 67.4141C26.0195 66.623 27.6309 65.002 28.373 62.9707C29.125 64.7578 30.6387 66.2227 32.582 66.9258L33.3828 65.6953C30.8438 64.8262 29.1055 62.668 29.1055 60.4023V59.7773H32.9922V58.4883H23.6367V59.7773H27.5625V60.4219C27.5625 62.9023 25.7266 65.2559 23.1484 66.1836ZM25.8828 71.3398C25.873 73.3906 28.0898 74.5625 31.7031 74.582C35.3066 74.5625 37.5234 73.3906 37.5234 71.3398C37.5234 69.2988 35.3066 68.1074 31.7031 68.1172C28.0898 68.1074 25.873 69.2988 25.8828 71.3398ZM27.4062 71.3398C27.3965 70.0703 29.0371 69.3086 31.7031 69.3086C34.3594 69.3086 36 70.0703 36 71.3398C36 72.5996 34.3594 73.3613 31.7031 73.3516C29.0371 73.3613 27.3965 72.5996 27.4062 71.3398ZM56.2539 71.0859H49.0078V67.3359H54.3008V58.4492H52.7969V61.5938H43.7734V58.4492H42.2305V67.3359H47.5039V71.0859H40.3555V72.3555H56.2539V71.0859ZM43.7734 66.0859V62.8438H52.7969V66.0859H43.7734Z" fill="#808080"/>
</svg>
