<svg width="96" height="80" viewBox="0 0 96 80" fill="none" xmlns="http://www.w3.org/2000/svg">
<path d="M32.3531 20.0349C32.3481 20.023 32.3433 20.0114 32.3386 20C32.3433 19.9886 32.3481 19.977 32.3531 19.9651C32.4769 19.668 32.6719 19.2338 32.9492 18.7084C33.5049 17.6555 34.3841 16.2491 35.6714 14.8447C38.2269 12.0569 42.4084 9.25 49 9.25C55.5916 9.25 59.7731 12.0569 62.3286 14.8447C63.6159 16.2491 64.4951 17.6555 65.0508 18.7084C65.3281 19.2338 65.5231 19.668 65.6469 19.9651C65.6519 19.977 65.6567 19.9886 65.6614 20C65.6567 20.0114 65.6519 20.023 65.6469 20.0349C65.5231 20.332 65.3281 20.7662 65.0508 21.2916C64.4951 22.3445 63.6159 23.7509 62.3286 25.1553C59.7731 27.9431 55.5916 30.75 49 30.75C42.4084 30.75 38.2269 27.9431 35.6714 25.1553C34.3841 23.7509 33.5049 22.3445 32.9492 21.2916C32.6719 20.7662 32.4769 20.332 32.3531 20.0349ZM32.1849 19.602L32.185 19.602L32.1849 19.602ZM32.1849 20.398C32.1849 20.398 32.1849 20.398 32.185 20.398L32.1849 20.398Z" stroke="#FF6712" stroke-width="2.5"/>
<circle cx="49" cy="20" r="6.75" stroke="#FF6712" stroke-width="2.5"/>
<path d="M7.83398 66.6328H5.35352V69.4258C3.69336 69.4746 2.12109 69.4844 0.783203 69.4844L1.07617 71.4961C4.18164 71.4863 8.40039 71.4473 12.3457 70.6953L12.1504 68.8789C10.7637 69.084 9.29883 69.2207 7.83398 69.3086V66.6328ZM1.13477 65.3047L2.30664 67.1797C4.40625 66.6426 5.82227 65.4414 6.59375 63.8887C7.4043 65.3633 8.83984 66.5156 10.9199 67.043L12.0527 65.1094C9.36719 64.4551 8.03906 62.8438 7.87305 61.125H11.5059V59.1133H7.83398V57.1797H5.35352V59.1133H1.70117V61.125H5.29492C5.12891 62.9316 3.82031 64.5918 1.13477 65.3047ZM13.166 74.8359H15.6465V57.0234H13.166V74.8359ZM32.3262 58.0195H19.9824V60.0117H29.8457C29.8359 61.418 29.7871 62.9121 29.3965 64.8945H17.9902V66.8867H34.2598V64.8945H31.9355C32.3359 62.7168 32.3359 61.0273 32.3262 59.5234V58.0195ZM20.0605 74.4648H32.834V72.4727H22.5215V68.4492H20.0605V74.4648ZM44.416 57.668H41.9551V64.9336H46.7207V66.4375H39.8848V68.4297H56.0957V66.4375H49.2207V64.9336H54.0254V57.668H51.5449V59.4453H44.416V57.668ZM41.8379 74.4844H54.2598V72.4922H44.3379V69.4453H41.8379V74.4844ZM44.416 62.9414V61.3594H51.5449V62.9414H44.416ZM68.2637 59.8164V57.9609H65.7637V59.582C65.7441 62.0332 64.4746 64.3965 61.5059 65.3828L62.8535 67.3359C64.8848 66.6523 66.2617 65.2461 67.0332 63.459C67.7949 65.0117 69.1133 66.2227 70.998 66.8477L72.3262 64.9141C69.5137 64.0449 68.2539 61.9746 68.2637 59.8164ZM63.9668 71.3594C63.957 73.5371 66.3105 74.8066 70.0605 74.7969C73.7422 74.8066 76.0469 73.5371 76.0566 71.3594C76.0469 69.2012 73.7422 67.9219 70.0605 67.9219C66.3105 67.9219 63.957 69.2012 63.9668 71.3594ZM66.4668 71.3594C66.4473 70.3926 67.7266 69.875 70.0605 69.875C72.3652 69.875 73.5957 70.3926 73.5957 71.3594C73.5957 72.3652 72.3652 72.8438 70.0605 72.8438C67.7266 72.8438 66.4473 72.3652 66.4668 71.3594ZM73.3809 67.5703H75.8809V63.2539H78.2832V61.1836H75.8809V57.0234H73.3809V67.5703ZM95.2754 65.3438H79.0645V67.3164H85.9199V68.8398H80.9395V74.6016H93.3418V68.8398H88.4004V67.3164H95.2754V65.3438ZM80.4902 59.5039H82.7949V62.2188H80.6074V64.2109H93.7129V62.2188H91.5059V59.5039H93.8301V57.5117H80.4902V59.5039ZM83.4004 72.6094V70.7734H90.9004V72.6094H83.4004ZM85.2949 62.2188V59.5039H89.0059V62.2188H85.2949Z" fill="#FF6712"/>
</svg>
