<svg width="70" height="80" viewBox="0 0 70 80" fill="none" xmlns="http://www.w3.org/2000/svg">
<circle cx="20.5" cy="9.5" r="1.5" fill="#808080"/>
<circle cx="20.5" cy="20.5" r="1.5" fill="#808080"/>
<circle cx="20.5" cy="31.5" r="1.5" fill="#808080"/>
<rect x="26" y="8" width="25" height="3" rx="1.5" fill="#808080"/>
<rect x="26" y="19" width="25" height="3" rx="1.5" fill="#808080"/>
<rect x="26" y="30" width="25" height="3" rx="1.5" fill="#808080"/>
<path d="M10.1367 59.0352H2.26562V60.3047H8.61328C8.54492 61.3691 8.36914 62.3945 8.05664 63.3711L1.38672 63.8203L1.64062 65.168L7.58789 64.6016C6.5332 66.9355 4.57031 68.9473 1.30859 70.5391L2.16797 71.7109C8.41797 68.6348 10.127 64.0449 10.1367 59.0352ZM13.0469 74.582H14.5703V65.5781H17.3828V64.2891H14.5703V57.2188H13.0469V74.582ZM25.5664 59.3477H19.1016V70.4023H20.1953C22.9492 70.3926 24.5898 70.3438 26.6016 69.9336L26.4648 68.6836C24.5801 69.0254 23.0566 69.123 20.5664 69.1523V65.2461H24.7656V64.0156H20.5664V60.5781H25.5664V59.3477ZM25.7031 65.0898H28.2617V73.6836H29.7266V57.6484H28.2617V63.8203H25.7031V65.0898ZM31.7969 74.582H33.2812V57.2188H31.7969V74.582ZM49.6289 58.9766H37.3828V60.2461H48.0859V60.7148C48.0762 62.7949 48.0762 65.2266 47.4219 68.5469L48.9844 68.7227C49.6094 65.2266 49.6094 62.8438 49.6289 60.7148V58.9766ZM35.7031 72.1211H51.5234V70.8516H43.418V64.6406H41.9141V70.8516H35.7031V72.1211ZM67.3242 57.2188H65.8008V74.6211H67.3242V57.2188ZM53.9648 60.1094H60.5078V63.7617H54.0039V70.4023H55.4492C58.4473 70.4023 61.084 70.2754 64.2773 69.7773L64.1211 68.4883C61.0156 68.9863 58.4473 69.123 55.5664 69.1133V65.0117H62.0508V58.8398H53.9648V60.1094Z" fill="#808080"/>
</svg>
