<svg width="57" height="80" viewBox="0 0 57 80" fill="none" xmlns="http://www.w3.org/2000/svg">
<circle cx="28" cy="11" r="7.75" stroke="#FF6712" stroke-width="2.5"/>
<path d="M24.1765 23.25H31.8235C38.4103 23.25 43.75 28.5897 43.75 35.1765C43.75 36.0455 43.0455 36.75 42.1765 36.75H13.8235C12.9545 36.75 12.25 36.0455 12.25 35.1765C12.25 28.5897 17.5897 23.25 24.1765 23.25Z" stroke="#FF6712" stroke-width="2.5"/>
<path d="M16.127 57.0234H13.7246V63.8984H12.0645V57.3164H9.7207V73.9375H12.0645V65.9102H13.7246V74.7969H16.127V57.0234ZM1.51758 70.4609H2.72852C4.56445 70.4707 6.5957 70.3438 8.97852 69.9336L8.72461 67.7852C7.01562 68.1172 5.44336 68.2441 4.01758 68.2832V58.9961H1.51758V70.4609ZM37.6699 57.0234H35.1895V61.3594H32.416V63.3711H35.1895V67.5703H37.6699V57.0234ZM22.5723 65.6172L23.8613 67.5898C25.9707 66.8672 27.3965 65.4121 28.1777 63.6055C28.9492 65.1973 30.3066 66.4863 32.2598 67.1211L33.4902 65.168C30.7266 64.25 29.457 62.1602 29.4082 60.0898H32.9434V58.0977H23.2949V60.0898H26.8691C26.8105 62.3164 25.4824 64.6406 22.5723 65.6172ZM25.4824 71.3984C25.4824 73.5566 27.8066 74.8164 31.5957 74.8164C35.3945 74.8164 37.7188 73.5566 37.7285 71.3984C37.7188 69.2402 35.3945 67.9707 31.5957 67.9609C27.8066 67.9707 25.4824 69.2402 25.4824 71.3984ZM27.9629 71.3984C27.9629 70.373 29.2422 69.8652 31.5957 69.875C33.959 69.8652 35.2383 70.373 35.248 71.3984C35.2383 72.4141 33.959 72.9219 31.5957 72.9219C29.2422 72.9219 27.9629 72.4141 27.9629 71.3984ZM56.2441 70.6953H49.3105V67.4141H54.4277V58.1562H51.9473V60.9102H44.1934V58.1562H41.6934V67.4141H46.8301V70.6953H39.9746V72.7266H56.2441V70.6953ZM44.1934 65.4219V62.9023H51.9473V65.4219H44.1934Z" fill="#FF6712"/>
</svg>
