<svg width="97" height="80" viewBox="0 0 97 80" fill="none" xmlns="http://www.w3.org/2000/svg">
<path d="M32.3531 20.0349C32.3481 20.023 32.3433 20.0114 32.3386 20C32.3433 19.9886 32.3481 19.977 32.3531 19.9651C32.4769 19.668 32.6719 19.2338 32.9492 18.7084C33.5049 17.6555 34.3841 16.2491 35.6714 14.8447C38.2269 12.0569 42.4084 9.25 49 9.25C55.5916 9.25 59.7731 12.0569 62.3286 14.8447C63.6159 16.2491 64.4951 17.6555 65.0508 18.7084C65.3281 19.2338 65.5231 19.668 65.6469 19.9651C65.6519 19.977 65.6567 19.9886 65.6614 20C65.6567 20.0114 65.6519 20.023 65.6469 20.0349C65.5231 20.332 65.3281 20.7662 65.0508 21.2916C64.4951 22.3445 63.6159 23.7509 62.3286 25.1553C59.7731 27.9431 55.5916 30.75 49 30.75C42.4084 30.75 38.2269 27.9431 35.6714 25.1553C34.3841 23.7509 33.5049 22.3445 32.9492 21.2916C32.6719 20.7662 32.4769 20.332 32.3531 20.0349ZM32.1849 19.602L32.185 19.602L32.1849 19.602ZM32.1849 20.398C32.1849 20.398 32.1849 20.398 32.185 20.398L32.1849 20.398Z" stroke="#808080" stroke-width="2.5"/>
<circle cx="49" cy="20" r="6.75" stroke="#808080" stroke-width="2.5"/>
<path d="M7.55273 66.3789H6.04883V69.6406C4.24219 69.6992 2.52344 69.709 1.06836 69.7188L1.2832 70.9883C4.4082 70.998 8.67578 70.9688 12.6504 70.2461L12.5332 69.1133C10.9316 69.3574 9.23242 69.4941 7.55273 69.582V66.3789ZM1.5957 65.7734L2.33789 66.9453C4.42773 66.3105 6.04883 64.9238 6.80078 63.0684C7.58203 64.8262 9.22266 66.1641 11.3027 66.7891L12.0254 65.5781C9.45703 64.8457 7.60156 63.0098 7.55273 60.7734H11.6348V59.5039H7.55273V57.3555H6.04883V59.5039H2.02539V60.7734H6.00977C5.9707 63.1074 4.16406 65.0117 1.5957 65.7734ZM13.6855 74.6211H15.209V57.2188H13.6855V74.6211ZM32.0645 58.2734H20.2676V59.5234H30.541V59.6211C30.5508 61.0957 30.5508 62.8047 30.082 65.207H18.2559V66.4961H34.1543V65.207H31.6055C32.0645 62.8438 32.0645 61.0859 32.0645 59.6211V58.2734ZM20.3652 74.1914H32.5918V72.9023H21.8887V68.4492H20.3652V74.1914ZM44.1934 57.9219H42.6699V64.8555H47.709V66.7109H40.5605V67.9805H56.3809V66.7109H49.2324V64.8555H54.3105V57.9219H52.7871V60.1289H44.1934V57.9219ZM42.6113 74.2109H54.623V72.9219H44.1543V69.3672H42.6113V74.2109ZM44.1934 63.625V61.3398H52.7871V63.625H44.1934ZM68.666 60.0312V58.1172H67.1621V59.9141C67.1523 62.5996 65.4043 64.9238 62.8066 65.8906L63.627 67.1211C65.6582 66.3301 67.2109 64.7383 67.9531 62.6777C68.7148 64.4941 70.2285 65.9297 72.1426 66.6328L72.9824 65.4219C70.4629 64.5625 68.666 62.3945 68.666 60.0312ZM65.1113 71.3789C65.1211 73.4004 67.2988 74.543 70.873 74.543C74.4375 74.543 76.5957 73.4004 76.5957 71.3789C76.5957 69.3965 74.4375 68.2344 70.873 68.2344C67.2988 68.2344 65.1211 69.3965 65.1113 71.3789ZM66.6543 71.3789C66.6348 70.1973 68.2559 69.4648 70.873 69.4648C73.5 69.4648 75.1016 70.1973 75.1113 71.3789C75.1016 72.6094 73.5 73.3223 70.873 73.332C68.2559 73.3223 66.6348 72.6094 66.6543 71.3789ZM74.916 67.7852H76.4395V63.0391H79.0566V61.75H76.4395V57.2188H74.916V67.7852ZM95.9707 65.6172H80.1504V66.8867H87.2988V68.9375H82.084V74.3477H94.0371V68.9375H88.8027V66.8867H95.9707V65.6172ZM81.6348 59.0547H84.3105V62.707H81.6934V63.9766H94.4082V62.707H91.791V59.0547H94.4668V57.7852H81.6348V59.0547ZM83.6074 73.0977V70.1484H92.5332V73.0977H83.6074ZM85.834 62.707V59.0547H90.2676V62.707H85.834Z" fill="#808080"/>
</svg>
