<svg width="34" height="76" viewBox="0 0 34 76" fill="none" xmlns="http://www.w3.org/2000/svg">
<path d="M22.9473 65.3867H10.9941V70.3477H22.9473V65.3867ZM9.06055 64.0586H24.8809V62.8281H17.7324V61.4902C20.8477 61.373 22.5957 60.5527 22.5957 59.0391C22.5957 57.4277 20.5645 56.5977 16.9707 56.5781C13.3672 56.5977 11.3262 57.4277 11.3262 59.0391C11.3262 60.5527 13.084 61.373 16.209 61.4902V62.8281H9.06055V64.0586ZM9.88086 55.875H23.9629V54.6836H17.7324V52.9648H16.209V54.6836H9.88086V55.875ZM12.5176 69.1562V66.5781H21.4434V69.1562H12.5176ZM12.9668 59.0391C12.957 58.1406 14.4219 57.6719 16.9707 57.6523C19.5195 57.6719 20.9648 58.1406 20.9746 59.0391C20.9648 59.9277 19.5195 60.4258 16.9707 60.4258C14.4219 60.4258 12.957 59.9277 12.9668 59.0391Z" fill="#808080"/>
<path d="M3.18684 11.4789L15.1868 2.3755C16.2588 1.56227 17.7412 1.56226 18.8132 2.3755L30.8132 11.4789C31.5608 12.0461 32 12.9306 32 13.869V28C32 29.6569 30.6569 31 29 31H5C3.34315 31 2 29.6568 2 28V13.869C2 12.9305 2.43917 12.0461 3.18684 11.4789Z" stroke="#808080" stroke-width="2.5"/>
</svg>
