<svg width="34" height="76" viewBox="0 0 34 76" fill="none" xmlns="http://www.w3.org/2000/svg">
<path d="M23.1621 65.3867H10.7598V70.6016H23.1621V65.3867ZM8.88477 64.4883H25.0957V62.5352H18.2402V61.666C21.2969 61.4902 22.957 60.6406 22.9668 59.1562C22.957 57.4766 20.8379 56.627 16.9902 56.6172C13.1621 56.627 10.9941 57.4766 11.0137 59.1562C10.9941 60.6406 12.6934 61.4902 15.7402 61.666V62.5352H8.88477V64.4883ZM9.66602 56.168H24.2559V54.293H18.2402V52.8672H15.7402V54.293H9.66602V56.168ZM13.2207 68.7461V67.2422H20.7207V68.7461H13.2207ZM13.6699 59.1562C13.6699 58.5312 14.7441 58.3066 16.9902 58.2969C19.2559 58.3066 20.291 58.5312 20.291 59.1562C20.291 59.752 19.2559 60.0156 16.9902 60.0156C14.7441 60.0156 13.6699 59.752 13.6699 59.1562Z" fill="#FF6712"/>
<path d="M3.18684 11.4789L15.1868 2.3755C16.2588 1.56227 17.7412 1.56226 18.8132 2.3755L30.8132 11.4789C31.5608 12.0461 32 12.9306 32 13.869V28C32 29.6569 30.6569 31 29 31H5C3.34315 31 2 29.6568 2 28V13.869C2 12.9305 2.43917 12.0461 3.18684 11.4789Z" stroke="#FF6712" stroke-width="2.5"/>
</svg>
