<svg width="70" height="80" viewBox="0 0 70 80" fill="none" xmlns="http://www.w3.org/2000/svg">
<path d="M30.1574 31.667C29.5645 31.6688 28.9854 31.8463 28.4933 32.1771C28.0011 32.5079 27.6181 32.977 27.3924 33.5254C27.1668 34.0737 27.1087 34.6766 27.2255 35.258C27.3423 35.8393 27.6288 36.373 28.0487 36.7916C28.4686 37.2102 29.0032 37.495 29.5849 37.61C30.1666 37.725 30.7693 37.6651 31.3169 37.4377C31.8646 37.2104 32.3326 36.8259 32.6618 36.3327C32.991 35.8396 33.1667 35.2599 33.1667 34.667C33.1643 33.8705 32.8461 33.1075 32.2821 32.5451C31.718 31.9828 30.9539 31.667 30.1574 31.667V31.667Z" fill="#FF6712"/>
<path d="M46.1667 31.667C45.5734 31.667 44.9934 31.8429 44.5 32.1726C44.0067 32.5022 43.6222 32.9708 43.3951 33.5189C43.168 34.0671 43.1086 34.6703 43.2244 35.2523C43.3401 35.8342 43.6259 36.3688 44.0454 36.7883C44.465 37.2079 44.9995 37.4936 45.5815 37.6093C46.1634 37.7251 46.7666 37.6657 47.3148 37.4386C47.863 37.2116 48.3315 36.827 48.6612 36.3337C48.9908 35.8404 49.1667 35.2603 49.1667 34.667C49.164 33.8722 48.847 33.1107 48.285 32.5487C47.723 31.9867 46.9615 31.6698 46.1667 31.667V31.667Z" fill="#FF6712"/>
<path d="M30.9874 28C30.0295 27.9963 29.102 27.6572 28.3611 27.0398C27.6202 26.4224 27.1112 25.5644 26.9196 24.6102L24.4188 11.9492L23.1435 5.45763H18.2087C17.8881 5.45763 17.5807 5.32816 17.354 5.09772C17.1273 4.86727 17 4.55472 17 4.22881C17 3.90291 17.1273 3.59036 17.354 3.35991C17.5807 3.12946 17.8881 3 18.2087 3H24.1354C24.4171 2.99982 24.6903 3.09831 24.9089 3.27891C25.1275 3.4595 25.2783 3.71117 25.3358 3.99153L26.6195 10.5169H50.7933C50.971 10.5172 51.1466 10.5567 51.3078 10.6328C51.469 10.7089 51.612 10.8197 51.7269 10.9576C51.8397 11.0979 51.9207 11.2618 51.9639 11.4376C52.0071 11.6134 52.0116 11.7968 51.9769 11.9746L49.6179 24.5847C49.4255 25.5433 48.9127 26.4045 48.1667 27.0224C47.4206 27.6403 46.4873 27.9767 45.525 27.9746L30.9874 28ZM27.0946 12.9746L29.2953 24.1102C29.3758 24.5133 29.5906 24.8758 29.9034 25.1367C30.2162 25.3976 30.6079 25.5409 31.0124 25.5424H45.4667C45.88 25.5498 46.2831 25.411 46.6069 25.1498C46.9308 24.8886 47.1553 24.5211 47.2422 24.1102L49.3345 12.9746H27.0946Z" fill="#FF6712" stroke="#FF6712" stroke-width="0.5"/>
<path d="M11.0547 58.2148H1.36719V60.207H5C4.9707 62.4629 3.63281 64.7676 0.683594 65.6953L1.95312 67.668C4.08203 66.9648 5.52734 65.5391 6.31836 63.752C7.09961 65.2656 8.4668 66.4668 10.4297 67.0625L11.6211 65.1094C8.78906 64.2793 7.5293 62.2773 7.51953 60.207H11.0547V58.2148ZM3.14453 71.3398C3.13477 73.5176 5.47852 74.8066 9.23828 74.7969C12.9395 74.8066 15.2246 73.5176 15.2344 71.3398C15.2246 69.1719 12.9395 67.9121 9.23828 67.9219C5.47852 67.9121 3.13477 69.1719 3.14453 71.3398ZM5.64453 71.3398C5.625 70.3438 6.9043 69.8457 9.23828 69.8555C11.543 69.8457 12.7734 70.3438 12.7734 71.3398C12.7734 72.3555 11.543 72.8633 9.23828 72.8633C6.9043 72.8633 5.625 72.3555 5.64453 71.3398ZM12.5586 67.5703H15.0586V63.1758H17.4609V61.1445H15.0586V57.0234H12.5586V67.5703ZM32.2656 57.0234H29.7656V74.7969H32.2656V65.7539H34.8828V63.6641H32.2656V57.0234ZM18.8086 70.6758H27.4609V58.4297H24.9805V62.7656H21.2891V58.4297H18.8086V70.6758ZM21.2891 68.6641V64.6992H24.9805V68.6641H21.2891ZM49.8438 58.0586H37.3828V60.0508H47.3633C47.3535 61.584 47.3145 63.332 46.8555 65.6172H35.5273V67.6289H42.3047V74.8164H44.8047V67.6289H51.7383V65.6172H49.3848C49.834 63.127 49.834 61.3203 49.8438 59.6602V58.0586ZM67.7539 57.0234H65.2734V74.7969H67.7539V57.0234ZM53.7695 70.4023H55.332C58.0762 70.4121 61.0254 70.2168 64.1406 69.5625L63.8281 67.5117C61.2109 68.0195 58.6328 68.2441 56.2305 68.2832V58.7227H53.7695V70.4023Z" fill="#FF6712"/>
</svg>
