<svg width="70" height="80" viewBox="0 0 70 80" fill="none" xmlns="http://www.w3.org/2000/svg">
<path d="M30.1574 31.667C29.5645 31.6688 28.9854 31.8463 28.4933 32.1771C28.0011 32.5079 27.6181 32.977 27.3924 33.5254C27.1668 34.0737 27.1087 34.6766 27.2255 35.258C27.3423 35.8393 27.6288 36.373 28.0487 36.7916C28.4686 37.2102 29.0032 37.495 29.5849 37.61C30.1666 37.725 30.7693 37.6651 31.3169 37.4377C31.8646 37.2104 32.3326 36.8259 32.6618 36.3327C32.991 35.8396 33.1667 35.2599 33.1667 34.667C33.1643 33.8705 32.8461 33.1075 32.2821 32.5451C31.718 31.9828 30.9539 31.667 30.1574 31.667V31.667Z" fill="#808080"/>
<path d="M46.1667 31.667C45.5734 31.667 44.9934 31.8429 44.5 32.1726C44.0067 32.5022 43.6222 32.9708 43.3951 33.5189C43.168 34.0671 43.1086 34.6703 43.2244 35.2523C43.3401 35.8342 43.6259 36.3688 44.0454 36.7883C44.465 37.2079 44.9995 37.4936 45.5815 37.6093C46.1634 37.7251 46.7666 37.6657 47.3148 37.4386C47.863 37.2116 48.3315 36.827 48.6612 36.3337C48.9908 35.8404 49.1667 35.2603 49.1667 34.667C49.164 33.8722 48.847 33.1107 48.285 32.5487C47.723 31.9867 46.9615 31.6698 46.1667 31.667V31.667Z" fill="#808080"/>
<path d="M30.9874 28C30.0295 27.9963 29.102 27.6572 28.3611 27.0398C27.6202 26.4224 27.1112 25.5644 26.9196 24.6102L24.4188 11.9492L23.1435 5.45763H18.2087C17.8881 5.45763 17.5807 5.32816 17.354 5.09772C17.1273 4.86727 17 4.55472 17 4.22881C17 3.90291 17.1273 3.59036 17.354 3.35991C17.5807 3.12946 17.8881 3 18.2087 3H24.1354C24.4171 2.99982 24.6903 3.09831 24.9089 3.27891C25.1275 3.4595 25.2783 3.71117 25.3358 3.99153L26.6195 10.5169H50.7933C50.971 10.5172 51.1466 10.5567 51.3078 10.6328C51.469 10.7089 51.612 10.8197 51.7269 10.9576C51.8397 11.0979 51.9207 11.2618 51.9639 11.4376C52.0071 11.6134 52.0116 11.7968 51.9769 11.9746L49.6179 24.5847C49.4255 25.5433 48.9127 26.4045 48.1667 27.0224C47.4206 27.6403 46.4873 27.9767 45.525 27.9746L30.9874 28ZM27.0946 12.9746L29.2953 24.1102C29.3758 24.5133 29.5906 24.8758 29.9034 25.1367C30.2162 25.3976 30.6079 25.5409 31.0124 25.5424H45.4667C45.88 25.5498 46.2831 25.411 46.6069 25.1498C46.9308 24.8886 47.1553 24.5211 47.2422 24.1102L49.3345 12.9746H27.0946Z" fill="#808080" stroke="#808080" stroke-width="0.5"/>
<path d="M7.01172 60.5195V59.7773H10.918V58.5078H1.54297V59.7773H5.50781V60.5195C5.48828 63.0293 3.67188 65.2656 1.07422 66.1445L1.85547 67.375C3.93555 66.623 5.53711 65.0703 6.2793 63.0781C7.03125 64.8262 8.54492 66.2031 10.5469 66.8672L11.2695 65.6562C8.7207 64.8262 7.02148 62.7949 7.01172 60.5195ZM3.37891 71.3398C3.38867 73.3711 5.56641 74.543 9.14062 74.543C12.7051 74.543 14.8633 73.3711 14.8633 71.3398C14.8633 69.3379 12.7051 68.1758 9.14062 68.1758C5.56641 68.1758 3.38867 69.3379 3.37891 71.3398ZM4.92188 71.3398C4.90234 70.1289 6.52344 69.4062 9.14062 69.4062C11.7676 69.4062 13.3691 70.1289 13.3789 71.3398C13.3691 72.5898 11.7676 73.3223 9.14062 73.3125C6.52344 73.3223 4.90234 72.5898 4.92188 71.3398ZM13.1836 67.707H14.707V62.9414H17.3242V61.6523H14.707V57.2188H13.1836V67.707ZM31.8555 57.2188H30.332V74.582H31.8555V65.3828H34.7656V64.0547H31.8555V57.2188ZM19.1406 70.4219H27.2656V58.7031H25.7422V63.293H20.6641V58.7031H19.1406V70.4219ZM20.6641 69.1328V64.5234H25.7422V69.1328H20.6641ZM49.4336 58.3516H37.6953V59.6211H47.9102V59.875C47.9102 61.4961 47.9102 63.3125 47.3828 65.8125H35.7031V67.082H42.8125V74.6211H44.3555V67.082H51.5234V65.8125H48.9355C49.4336 63.3223 49.4336 61.5156 49.4336 59.875V58.3516ZM67.3047 57.2188H65.7812V74.582H67.3047V57.2188ZM54.1211 70.1094H55.5273C58.3105 70.1094 61.0547 69.8945 64.1406 69.25L63.9258 67.9414C61.0156 68.5566 58.2812 68.7617 55.625 68.7812V58.9375H54.1211V70.1094Z" fill="#808080"/>
</svg>
