<svg width="70" height="80" viewBox="0 0 70 80" fill="none" xmlns="http://www.w3.org/2000/svg">
<circle cx="20.5" cy="9.5" r="1.5" fill="#FF6712"/>
<circle cx="20.5" cy="20.5" r="1.5" fill="#FF6712"/>
<circle cx="20.5" cy="31.5" r="1.5" fill="#FF6712"/>
<rect x="26" y="8" width="25" height="3" rx="1.5" fill="#FF6712"/>
<rect x="26" y="19" width="25" height="3" rx="1.5" fill="#FF6712"/>
<rect x="26" y="30" width="25" height="3" rx="1.5" fill="#FF6712"/>
<path d="M10.2344 58.7227H1.99219V60.7148H7.74414C7.68555 61.5547 7.55859 62.3555 7.37305 63.1074L1.05469 63.4883L1.36719 65.6172L6.62109 65.1289C5.61523 67.1016 3.84766 68.752 0.878906 70.2266L2.24609 72.1016C8.88672 68.7715 10.2148 64.2109 10.2344 58.7227ZM12.4805 74.7578H14.9805V65.8906H17.5V63.8398H14.9805V57.0234H12.4805V74.7578ZM25.4297 58.9961H18.7891V70.8711H19.9805C22.5879 70.8711 24.2871 70.8516 26.3281 70.4805L26.1133 68.4688C24.4531 68.7422 23.0566 68.8398 21.1523 68.8691V65.6758H24.7266V63.7812H21.1523V60.9492H25.4297V58.9961ZM25.5664 65.5H27.5586V73.9961H29.8828V57.3359H27.5586V63.5078H25.5664V65.5ZM31.25 74.7969H33.6523V57.0234H31.25V74.7969ZM50.1758 58.5664H37.207V60.5391H47.6758C47.666 62.6289 47.6367 65.1289 46.9531 68.4883L49.4531 68.7422C50.166 64.9727 50.166 62.4727 50.1758 60.2461V58.5664ZM35.5273 72.6289H51.7383V70.5977H43.8086V64.4844H41.3281V70.5977H35.5273V72.6289ZM67.7148 57.0234H65.2344V74.8359H67.7148V57.0234ZM53.75 60.5195H59.668V63.3906H53.7695V70.6758H55.3711C58.6133 70.6758 61.2598 70.5684 64.1797 70.0508L63.9648 68.0391C61.3574 68.4688 59.0625 68.6055 56.3477 68.625V65.3633H62.207V58.5078H53.75V60.5195Z" fill="#FF6712"/>
</svg>
